<?xml version="1.0" standalone="no"?>
<!DOCTYPE svg PUBLIC "-//W3C//DTD SVG 20010904//EN"
 "http://www.w3.org/TR/2001/REC-SVG-20010904/DTD/svg10.dtd">
<svg version="1.0" xmlns="http://www.w3.org/2000/svg"
 width="300.000000pt" height="300.000000pt" viewBox="0 0 300.000000 300.000000"
 preserveAspectRatio="xMidYMid meet">
<metadata>
Created by potrace 1.10, written by Peter Selinger 2001-2011
</metadata>
<g transform="translate(0.000000,300.000000) scale(0.100000,-0.100000)"
fill="#ffffff" stroke="none">
<path d="M2494 1759 c-349 -22 -469 -108 -482 -344 -14 -265 109 -368 468
-396 124 -10 255 -7 388 7 l52 6 0 55 c0 55 0 55 -27 49 -16 -3 -94 -9 -176
-13 -183 -7 -252 7 -321 68 -58 51 -81 111 -81 209 0 62 5 85 28 132 43 88
104 121 254 139 75 8 246 -1 296 -17 15 -5 17 2 17 44 l0 50 -87 6 c-166 11
-218 12 -329 5z"/>
<path d="M80 1390 l0 -350 65 0 65 0 2 251 3 251 210 -233 c126 -140 224 -241
245 -251 28 -15 62 -18 173 -18 l137 0 0 350 0 350 -65 0 -65 0 -2 -257 -3
-256 -213 236 c-156 172 -225 241 -256 256 -36 18 -61 21 -169 21 l-127 0 0
-350z"/>
<path d="M1112 1448 c3 -339 5 -344 93 -388 50 -25 52 -25 364 -28 173 -2 330
-1 348 3 32 6 33 7 33 55 l0 50 -235 0 c-262 0 -284 4 -304 61 -6 18 -11 63
-11 100 l0 69 245 0 245 0 0 45 0 45 -245 0 -245 0 0 95 0 95 270 0 270 0 0
45 0 45 -416 0 -415 0 3 -292z"/>
</g>
</svg>
